<svg width="8" height="8" viewBox="0 0 8 8" fill="none" xmlns="http://www.w3.org/2000/svg">
<path d="M7.42854 0H2.85712C2.54153 0 2.28568 0.255848 2.28568 0.571436C2.28568 0.887023 2.54153 1.14287 2.85712 1.14287H6.049L0.167375 7.02454C-0.0557918 7.2477 -0.0557918 7.60948 0.167375 7.83264C0.278922 7.94421 0.425163 8 0.571404 8C0.717644 8 0.86391 7.94424 0.975481 7.83262L6.85713 1.95098V5.14287C6.85713 5.45846 7.11298 5.71431 7.42857 5.71431C7.74415 5.71431 8 5.45846 8 5.14287V0.571436C7.99998 0.255848 7.74413 0 7.42854 0Z" fill="#074EF5"/>
</svg>
