<?xml version="1.0" encoding="UTF-8" standalone="no"?><!DOCTYPE svg PUBLIC "-//W3C//DTD SVG 1.1//EN" "http://www.w3.org/Graphics/SVG/1.1/DTD/svg11.dtd"><svg width="100%" height="100%" viewBox="0 0 8 8" version="1.1" xmlns="http://www.w3.org/2000/svg" xmlns:xlink="http://www.w3.org/1999/xlink" xml:space="preserve" xmlns:serif="http://www.serif.com/" style="fill-rule:evenodd;clip-rule:evenodd;stroke-linejoin:round;stroke-miterlimit:2;"><path d="M7.429,0l-4.572,0c-0.315,0 -0.571,0.256 -0.571,0.571c0,0.316 0.256,0.572 0.571,0.572l3.192,0l-5.882,5.882c-0.223,0.223 -0.223,0.584 0,0.808c0.112,0.111 0.258,0.167 0.404,0.167c0.147,0 0.293,-0.056 0.404,-0.167l5.882,-5.882l0,3.192c0,0.315 0.256,0.571 0.572,0.571c0.315,0 0.571,-0.256 0.571,-0.571l0,-4.572c0,-0.315 -0.256,-0.571 -0.571,-0.571Z" style="fill:#f55c2a;fill-rule:nonzero;"/></svg>