<svg width="21" height="24" viewBox="0 0 21 24" fill="none" xmlns="http://www.w3.org/2000/svg">
<g clip-path="url(#clip0)">
<path d="M10.4001 24C5.04308 23.5048 0.414134 13.9636 0 5.91653C3.80047 5.3285 7.55924 3.00329 10.4001 0C13.0747 2.937 16.9995 5.3285 20.8 5.91653C20.3859 13.9636 15.7571 23.5048 10.4001 24Z" fill="#F55C2A"/>
<path d="M6.38936 13.8673V13.0843L10.2433 12.558V11.4518L6.38936 12.2395V11.4348L10.2268 10.1849V9.20428L6.38937 10.6036V9.85521L10.2268 8.06633V6.83634L6.38937 9.06849V8.4487L10.3599 5.54004L14.3471 8.54833V14.8145H14.8459V15.9449H5.95766V14.8145H10.2268V13.6508L6.38936 13.8673Z" fill="white"/>
</g>
<defs>
<clipPath id="clip0">
<rect width="20.8" height="24" fill="white"/>
</clipPath>
</defs>
</svg>
