<svg width="92" height="16" viewBox="0 0 92 16" fill="none" xmlns="http://www.w3.org/2000/svg">
<g clip-path="url(#clip0)">
<path d="M88.6486 2.36212H91.0105V14.324H88.6486V2.36212ZM84.1534 2.36212V14.324H86.5153V2.36212H84.1534ZM78.2867 12.5716C78.7438 12.5716 79.2772 12.3431 79.5057 11.9621C79.7343 11.5812 79.6581 11.124 79.6581 10.7431C79.201 10.7431 78.7438 10.7431 78.2867 10.8193C77.9057 10.8955 77.4486 10.9716 77.22 11.2002C76.9914 11.4288 76.9153 11.8859 77.0676 12.1907C77.3724 12.4955 77.9057 12.5716 78.2867 12.5716ZM78.6676 5.79069C79.4295 5.79069 80.2676 5.94307 80.9533 6.40021C81.4867 6.78117 81.8676 7.3145 82.02 7.92402C82.1724 8.53355 82.1724 9.21926 82.1724 9.90498C82.1724 11.3526 82.1724 12.8764 82.1724 14.324H79.9629V13.5621C79.7343 13.9431 79.201 14.1716 78.7438 14.324C78.2867 14.4764 77.6772 14.4764 77.22 14.4002C76.3057 14.2478 75.4676 13.7907 75.0867 12.9526C74.9343 12.5716 74.9343 12.1907 74.9343 11.8097C74.9343 11.4288 75.0105 10.9716 75.2391 10.5907C76.0772 8.99069 78.3629 9.14307 79.8867 9.14307C79.8867 8.83831 79.8867 8.38117 79.6581 8.07641C79.4295 7.84783 79.0486 7.77164 78.7438 7.77164C77.9819 7.77164 77.22 7.84783 76.6105 8.38117L75.4676 6.93355C75.9248 6.5526 76.4581 6.24783 76.9914 6.09545C77.3724 5.86688 77.9819 5.79069 78.6676 5.79069ZM72.6486 2.36212L70.8962 9.29545L69.1438 2.74307H67.2391L65.4105 9.29545L63.5819 2.36212H60.9914L64.3438 14.324H66.5533L68.1534 8.22879L69.7533 14.324H72.0391L75.3914 2.36212H72.6486ZM56.7248 5.86688C55.8105 5.86688 54.82 6.24783 54.2867 7.08593C53.9057 6.24783 53.1438 5.94307 52.2295 5.86688C51.7724 5.86688 51.2391 5.86688 50.8581 6.09545C50.4772 6.24783 50.0962 6.47641 49.9438 6.85736V6.01926H47.6581V14.324H50.02C50.02 13.5621 50.02 10.4383 50.02 9.60021C50.02 8.9145 50.3248 8.30498 51.0105 8.1526C51.3914 8.07641 51.8486 8.1526 52.1533 8.45736C52.4581 8.76212 52.5343 9.14307 52.5343 9.52402C52.5343 10.2859 52.5343 13.4097 52.5343 14.2478C52.5343 14.2478 52.5343 14.2478 52.5343 14.324H54.9724C54.9724 12.8764 54.9724 11.4288 54.9724 9.98117C54.9724 9.44783 54.8962 8.76212 55.3533 8.38117C55.8867 7.92402 56.801 8.00021 57.1819 8.60974C57.5629 9.06688 57.4867 9.7526 57.4867 10.3621C57.4867 11.2002 57.4867 13.8669 57.4867 14.4002H59.9248C59.9248 12.8764 59.9248 11.4288 59.9248 9.90498C59.9248 8.68593 59.8486 7.3145 58.7819 6.47641C58.2486 6.01926 57.4867 5.86688 56.7248 5.86688ZM46.8962 6.09545C46.2867 5.86688 45.601 5.79069 44.9153 5.86688C44.3819 5.94307 43.62 6.24783 43.4676 6.78117V6.01926H41.1819V14.324H43.5438C43.5438 13.5621 43.5438 10.3621 43.5438 9.52402C43.5438 8.99069 43.6962 8.45736 44.2295 8.22879C44.6867 7.92402 45.3724 8.00021 45.8295 8.38117L46.8962 6.09545ZM36.3057 5.86688C36.5343 5.86688 36.7629 5.86688 37.0676 5.94307C37.9819 6.09545 38.82 6.62879 39.3533 7.3145C39.8867 8.00022 40.1153 8.9145 40.1153 9.7526C40.1153 10.2859 40.1153 10.8955 40.0391 11.4288C39.8867 12.3431 39.3533 13.1812 38.5914 13.7145C36.9914 14.9335 34.6295 14.6288 33.3343 13.105C32.7248 12.4193 32.4962 11.505 32.42 10.5907C32.42 10.0574 32.42 9.60021 32.4962 9.06688C32.6486 8.1526 33.0295 7.3145 33.7153 6.70498C34.4772 6.17164 35.3914 5.86688 36.3057 5.86688ZM35.0105 8.9145C34.8581 9.21926 34.8581 9.60021 34.8581 9.98117C34.8581 10.5907 34.7819 11.3526 35.2391 11.8859C35.5438 12.1907 36.001 12.4193 36.4581 12.3431C36.9153 12.2669 37.3724 11.9621 37.5248 11.5812C37.7533 11.0478 37.6772 10.4383 37.6772 9.82879C37.6772 9.44783 37.601 9.06688 37.4486 8.76212C37.22 8.38117 36.7629 8.1526 36.3057 8.1526C35.7724 8.07641 35.2391 8.38117 35.0105 8.9145ZM31.5057 7.77164V5.86688H30.2105V3.20021H27.7724V5.86688H26.8581V7.77164H27.7724C27.7724 8.60974 27.7724 9.44783 27.7724 10.2859C27.7724 11.3526 27.62 12.5716 28.4581 13.4097C28.8391 13.8669 29.3724 14.0955 29.9819 14.2478C30.2867 14.324 30.5153 14.324 30.82 14.4002C30.9724 14.4002 31.3533 14.4764 31.5057 14.324V12.3431C31.201 12.3431 30.82 12.3431 30.5914 12.1145C30.3629 11.9621 30.3629 11.6574 30.3629 11.4288C30.3629 11.2002 30.3629 7.92402 30.3629 7.77164C30.6676 7.77164 31.0486 7.77164 31.5057 7.77164ZM26.2486 11.0478C26.3248 10.1335 26.0962 9.29545 25.5629 8.60974C24.9533 7.92402 24.1153 7.54307 23.201 7.3145C22.7438 7.16212 22.2105 7.08593 21.7533 7.00974C21.3724 6.93355 20.9153 6.78117 20.6105 6.47641C20.3057 6.17164 20.3057 5.63831 20.4581 5.25736C20.6105 4.87641 21.0676 4.64783 21.5248 4.57164C22.5914 4.34307 23.7343 4.64783 24.4962 5.33355L26.0962 3.73355C24.9533 2.43831 23.1248 2.13355 21.4486 2.28593C20.6105 2.36212 19.7724 2.59069 19.0867 3.12402C18.4772 3.65736 18.02 4.34307 17.9438 5.10498C17.7914 5.86688 17.9438 6.70498 18.3248 7.39069C18.7057 8.07641 19.3914 8.60974 20.0772 8.9145C20.4581 9.06688 20.9153 9.21926 21.2962 9.29545C21.6772 9.37164 22.1343 9.44783 22.5153 9.52402C22.82 9.60021 23.201 9.7526 23.4295 9.98117C23.6581 10.2859 23.7343 10.6669 23.6581 10.9716C23.5057 11.8097 22.5153 12.0383 21.7533 12.0383C20.7629 12.0383 19.7724 11.5812 19.0867 10.9716L17.4105 12.8002C18.401 13.9431 20.001 14.324 21.5248 14.4002C22.8962 14.4764 24.42 14.1716 25.4105 13.105C25.9438 12.6478 26.1724 11.8097 26.2486 11.0478Z" fill="#F55C2A"/>
<path d="M7.88281 16C7.88281 16 7.959 16 8.03519 16C8.94948 15.6952 15.6542 12.8762 14.9685 2.28571C14.8923 1.37143 14.6638 1.44762 14.1304 1.6C11.9971 1.98095 10.2447 1.75238 8.11138 0.0761905C7.959 0 7.959 0 7.88281 0V16Z" fill="#F55C2A"/>
<path d="M7.88484 16C7.88484 16 7.80865 16 7.73246 16C6.81817 15.6952 0.113408 12.8762 0.799122 2.28571C0.875313 1.37143 1.10388 1.44762 1.63722 1.6C3.77055 1.98095 5.52293 1.75238 7.65626 0.0761905C7.73246 0 7.80865 0 7.88484 0V16Z" fill="#F55C2A" fill-opacity="0.5"/>
</g>
<defs>
<clipPath id="clip0">
<rect x="0.800781" width="90.2095" height="16" fill="white"/>
</clipPath>
</defs>
</svg>
