<svg width="65" height="24" viewBox="0 0 65 24" fill="none" xmlns="http://www.w3.org/2000/svg">
<path d="M58.4371 8.41463L55.1186 7.64426L54.526 7.40723L39.2964 7.52574V14.8739L58.4371 14.9332V8.41463Z" fill="#F55C2A"/>
<path d="M52.2131 14.2227C52.3909 13.6301 52.3316 13.0375 52.0354 12.6819C51.7391 12.3264 51.3242 12.0893 50.7909 12.0301L40.4798 11.9116C40.4205 11.9116 40.3613 11.8523 40.302 11.8523C40.2428 11.793 40.2428 11.7338 40.302 11.6745C40.3613 11.556 40.4205 11.4968 40.5391 11.4968L50.9094 11.3782C52.1539 11.319 53.4576 10.3116 53.9316 9.12638L54.5242 7.58564C54.5242 7.52638 54.5835 7.46712 54.5242 7.40786C53.8724 4.38564 51.1465 2.13379 47.9465 2.13379C44.9835 2.13379 42.4354 4.03009 41.5465 6.69675C40.9539 6.28194 40.2428 6.0449 39.4131 6.10416C37.9909 6.22268 36.865 7.40786 36.6872 8.83008C36.628 9.18564 36.6872 9.5412 36.7465 9.89675C34.4354 9.95601 32.5391 11.8523 32.5391 14.2227C32.5391 14.4597 32.5391 14.6375 32.5983 14.8745C32.5983 14.993 32.7168 15.0523 32.7761 15.0523H51.7983C51.9168 15.0523 52.0354 14.993 52.0354 14.8745L52.2131 14.2227Z" fill="#F55C2A"/>
<path d="M55.4757 7.58496H55.1794C55.1202 7.58496 55.0609 7.64422 55.0017 7.70348L54.5868 9.1257C54.4091 9.71829 54.4683 10.3109 54.7646 10.6664C55.0609 11.022 55.4757 11.259 56.0091 11.3183L58.2017 11.4368C58.2609 11.4368 58.3202 11.4961 58.3794 11.4961C58.4387 11.5553 58.4387 11.6146 58.3794 11.6739C58.3202 11.7924 58.2609 11.8516 58.1424 11.8516L55.8906 11.9701C54.6461 12.0294 53.3424 13.0368 52.8683 14.222L52.7498 14.7553C52.6906 14.8146 52.7498 14.9331 52.8683 14.9331H60.6906C60.8091 14.9331 60.8683 14.8739 60.8683 14.7553C60.9868 14.2813 61.1054 13.7479 61.1054 13.2146C61.1054 10.1331 58.5572 7.58496 55.4757 7.58496Z" fill="#F55C2A"/>
<path d="M61.8759 18.2516C61.5796 18.2516 61.3425 18.0146 61.3425 17.7183C61.3425 17.422 61.5796 17.1849 61.8759 17.1849C62.1722 17.1849 62.4092 17.422 62.4092 17.7183C62.4092 18.0146 62.1722 18.2516 61.8759 18.2516ZM61.8759 17.3034C61.6388 17.3034 61.4611 17.4812 61.4611 17.7183C61.4611 17.9553 61.6388 18.1331 61.8759 18.1331C62.1129 18.1331 62.2907 17.9553 62.2907 17.7183C62.2907 17.4812 62.1129 17.3034 61.8759 17.3034ZM62.1129 18.0146H61.9944L61.8759 17.8368H61.7573V18.0146H61.6388V17.4812H61.9351C62.0536 17.4812 62.1129 17.5405 62.1129 17.659C62.1129 17.7183 62.0536 17.7775 61.9944 17.8368L62.1129 18.0146ZM61.9351 17.7183C61.9944 17.7183 61.9944 17.7183 61.9944 17.659C61.9944 17.5997 61.9351 17.5997 61.9351 17.5997H61.7573V17.7775H61.9351V17.7183ZM8.77957 17.1849H10.0833V20.7405H12.3351V21.8664H8.77957V17.1849ZM13.6981 19.496C13.6981 18.1331 14.7648 17.0664 16.2462 17.0664C17.7277 17.0664 18.7351 18.1331 18.7351 19.496C18.7351 20.859 17.6685 21.9257 16.187 21.9257C14.7648 21.9257 13.6981 20.859 13.6981 19.496ZM17.4314 19.496C17.4314 18.7849 16.9573 18.1923 16.2462 18.1923C15.5351 18.1923 15.0611 18.7849 15.0611 19.4368C15.0611 20.0886 15.5351 20.6812 16.2462 20.6812C16.9573 20.7997 17.4314 20.2071 17.4314 19.496ZM20.3351 19.7923V17.1849H21.6388V19.7923C21.6388 20.4442 21.9944 20.7997 22.5277 20.7997C23.0611 20.7997 23.4166 20.5034 23.4166 19.8516V17.1849H24.7203V19.7923C24.7203 21.3331 23.8314 21.9849 22.5277 21.9849C21.1648 21.9257 20.3351 21.2738 20.3351 19.7923ZM26.6759 17.1849H28.5129C30.1722 17.1849 31.1796 18.1331 31.1796 19.496C31.1796 20.859 30.1722 21.8664 28.5129 21.8664H26.7351V17.1849H26.6759ZM28.5129 20.6812C29.2833 20.6812 29.8166 20.2664 29.8166 19.496C29.8166 18.7257 29.2833 18.3109 28.5129 18.3109H27.9796V20.6812H28.5129ZM33.0166 17.1849H36.7499V18.3109H34.3203V19.0812H36.5129V20.1479H34.3203V21.8664H33.0166V17.1849ZM38.587 17.1849H39.8907V20.7405H42.1425V21.8664H38.587V17.1849ZM45.5203 17.1257H46.824L48.8388 21.8664H47.4166L47.0611 21.0368H45.224L44.8685 21.8664H43.5055L45.5203 17.1257ZM46.7055 20.0294L46.1722 18.7257L45.6388 20.0294H46.7055ZM50.4981 17.1849H52.6907C53.4018 17.1849 53.8759 17.3627 54.2314 17.7183C54.5277 18.0146 54.6462 18.3701 54.6462 18.7849C54.6462 19.496 54.2907 19.9701 53.6981 20.2071L54.824 21.8664H53.3425L52.3944 20.4442H51.8018V21.8664H50.4981V17.1849ZM52.6314 19.4368C53.0462 19.4368 53.3425 19.1997 53.3425 18.9034C53.3425 18.5479 53.0462 18.3701 52.6314 18.3701H51.8018V19.496H52.6314V19.4368ZM56.4833 17.1849H60.2759V18.2516H57.787V18.9627H60.0388V20.0294H57.787V20.7405H60.3351V21.8664H56.4833V17.1849ZM5.93513 20.0886C5.75735 20.5034 5.34253 20.7997 4.86846 20.7997C4.15735 20.7997 3.68328 20.2071 3.68328 19.5553C3.68328 18.9034 4.15735 18.3109 4.86846 18.3109C5.40179 18.3109 5.81661 18.6664 5.99439 19.0812H7.35735C7.12031 17.9553 6.17216 17.1257 4.86846 17.1257C3.44624 17.1257 2.32031 18.1923 2.32031 19.5553C2.32031 20.9183 3.38698 21.9849 4.8092 21.9849C6.05365 21.9849 7.00179 21.1553 7.29809 20.0886H5.93513Z" fill="#F55C2A"/>
</svg>
