<?xml version="1.0" encoding="UTF-8" standalone="no"?><!DOCTYPE svg PUBLIC "-//W3C//DTD SVG 1.1//EN" "http://www.w3.org/Graphics/SVG/1.1/DTD/svg11.dtd"><svg width="100%" height="100%" viewBox="0 0 24 30" version="1.1" xmlns="http://www.w3.org/2000/svg" xmlns:xlink="http://www.w3.org/1999/xlink" xml:space="preserve" xmlns:serif="http://www.serif.com/" style="fill-rule:evenodd;clip-rule:evenodd;stroke-linejoin:round;stroke-miterlimit:2;"><path d="M13.693,13.893c-0.226,-0.199 -0.483,-0.331 -0.773,-0.431c-0.29,-0.066 -0.612,-0.099 -0.999,-0.099l-1.482,0c-0.258,0 -0.419,0.066 -0.547,0.166c-0.097,0.099 -0.162,0.298 -0.162,0.563l0,4.278c0,0.199 0,0.331 0.065,0.464c0.032,0.132 0.097,0.199 0.193,0.265c0.097,0.066 0.258,0.1 0.483,0.1l1.482,0c0.258,0 0.484,-0.034 0.709,-0.067c0.193,-0.033 0.387,-0.099 0.58,-0.165c0.193,-0.1 0.354,-0.199 0.483,-0.332c0.193,-0.199 0.355,-0.398 0.483,-0.63c0.129,-0.232 0.226,-0.497 0.29,-0.796c0.065,-0.298 0.097,-0.597 0.097,-0.961c0,-1.028 -0.29,-1.824 -0.902,-2.355Zm-0.838,4.112c-0.096,0.066 -0.193,0.133 -0.29,0.166c-0.128,0.033 -0.225,0.066 -0.322,0.066l-0.451,0l-0.87,0l0,-3.979l0.774,0c0.354,0 0.644,0.033 0.902,0.133c0.257,0.066 0.451,0.265 0.612,0.563c0.161,0.299 0.257,0.73 0.257,1.294c-0.032,0.862 -0.225,1.425 -0.612,1.757Z" style="fill:#f55c2a;fill-rule:nonzero;"/><path d="M23.936,6.532l-0.033,-0.033l0,-0.033l-6.12,-6.3l-0.033,-0.033c0,0 -0.032,0 -0.032,-0.034c0,0 -0.032,0 -0.032,-0.033c-0.097,-0.066 -0.193,-0.066 -0.322,-0.066l-15.173,0c-0.58,0 -1.128,0.232 -1.514,0.63l-0.033,0.033c-0.386,0.398 -0.644,0.995 -0.644,1.592l0,25.49c0,0.63 0.258,1.194 0.644,1.592c0.387,0.398 0.967,0.663 1.547,0.663l19.618,0c0.613,0 1.16,-0.265 1.547,-0.663c0.386,-0.398 0.644,-0.995 0.644,-1.592l0,-20.881c0,-0.133 -0.032,-0.232 -0.064,-0.332Zm-5.96,-4.145l3.64,3.747l-2.674,0c-0.257,0 -0.515,-0.099 -0.676,-0.298c-0.161,-0.166 -0.29,-0.431 -0.29,-0.696l0,-2.753Zm4.639,25.358c0,0.232 -0.097,0.431 -0.258,0.597c-0.161,0.166 -0.354,0.265 -0.58,0.265l-19.586,0c-0.226,0 -0.419,-0.099 -0.58,-0.232c-0.161,-0.166 -0.226,-0.365 -0.226,-0.597l0,-25.556c0,-0.233 0.097,-0.431 0.258,-0.597l0.032,-0.033c0.161,-0.133 0.355,-0.233 0.548,-0.233l14.432,0l0,3.747c0,0.664 0.258,1.26 0.709,1.725c0.419,0.431 1.031,0.696 1.675,0.696l3.576,0l0,20.218Z" style="fill:#f55c2a;fill-rule:nonzero;"/><path d="M8.247,13.827c-0.161,-0.166 -0.355,-0.265 -0.612,-0.332c-0.226,-0.066 -0.58,-0.099 -0.999,-0.099l-1.482,0c-0.258,0 -0.451,0.066 -0.548,0.166c-0.128,0.099 -0.161,0.298 -0.161,0.564l0,4.509c0,0.232 0.065,0.398 0.161,0.531c0.097,0.132 0.258,0.165 0.419,0.165c0.161,0 0.29,-0.066 0.419,-0.199c0.097,-0.132 0.161,-0.298 0.161,-0.53l0,-1.658l1.063,0c0.709,0 1.224,-0.166 1.579,-0.464c0.354,-0.299 0.547,-0.763 0.547,-1.36c0,-0.265 -0.032,-0.53 -0.129,-0.762c-0.128,-0.199 -0.257,-0.398 -0.418,-0.531Zm-0.774,1.857c-0.096,0.133 -0.225,0.232 -0.418,0.298c-0.194,0.067 -0.419,0.1 -0.677,0.1l-0.773,0l0,-1.791l0.773,0c0.516,0 0.838,0.1 1.031,0.266c0.161,0.165 0.226,0.364 0.226,0.63c-0.033,0.199 -0.065,0.364 -0.162,0.497Z" style="fill:#f55c2a;fill-rule:nonzero;"/><path d="M16.299,13.329c-0.194,0.033 -0.323,0.066 -0.419,0.133c-0.097,0.033 -0.193,0.132 -0.226,0.232c-0.064,0.099 -0.064,0.232 -0.064,0.431l0,4.476c0,0.232 0.064,0.431 0.161,0.531c0.097,0.132 0.258,0.166 0.419,0.166c0.161,0 0.29,-0.067 0.419,-0.166c0.096,-0.133 0.161,-0.299 0.161,-0.531l0,-1.923l1.9,0c0.161,0 0.29,-0.033 0.387,-0.132c0.097,-0.067 0.129,-0.199 0.129,-0.332c0,-0.133 -0.032,-0.232 -0.129,-0.332c-0.097,-0.066 -0.226,-0.132 -0.387,-0.132l-1.9,0l0,-1.492l2.255,0c0.193,0 0.322,-0.034 0.418,-0.133c0.097,-0.1 0.129,-0.199 0.129,-0.332c0,-0.132 -0.032,-0.232 -0.129,-0.331c-0.096,-0.1 -0.225,-0.133 -0.418,-0.133l-2.706,0Z" style="fill:#f55c2a;fill-rule:nonzero;"/></svg>