<svg width="11" height="19" viewBox="0 0 11 19" fill="none" xmlns="http://www.w3.org/2000/svg">
<path d="M4.79545 18.8182H5.96023V17.2344C8.94318 17.0284 10.6193 15.267 10.6193 13.0511C10.6193 10.3239 8.03409 9.44318 6.52841 9.04545L5.96023 8.8892V3.83949C7.46591 3.98864 8.55966 4.7983 8.71591 6.09091H10.4205C10.3494 4.01705 8.53125 2.44034 5.96023 2.26989V0.636363H4.79545V2.29119C2.35938 2.53977 0.534091 4.08807 0.534091 6.31818C0.534091 8.27841 1.95455 9.44318 4.22727 10.0966L4.79545 10.2599V15.6364C3.30398 15.4801 2.08239 14.7131 1.95455 13.25H0.136364C0.299716 15.4872 2.00426 17.0497 4.79545 17.2344V18.8182ZM5.96023 15.6364V10.5938L6.01705 10.608C7.55114 11.0341 8.91477 11.5739 8.91477 13.0227C8.91477 14.4503 7.67898 15.4446 5.96023 15.6364ZM4.79545 8.5767C3.71591 8.27131 2.23864 7.67472 2.23864 6.23295C2.23864 5.00426 3.23295 4.06676 4.79545 3.8608V8.5767Z" fill="#074EF5"/>
</svg>
