<?xml version="1.0" encoding="UTF-8" standalone="no"?><!DOCTYPE svg PUBLIC "-//W3C//DTD SVG 1.1//EN" "http://www.w3.org/Graphics/SVG/1.1/DTD/svg11.dtd"><svg width="100%" height="100%" viewBox="0 0 32 32" version="1.1" xmlns="http://www.w3.org/2000/svg" xmlns:xlink="http://www.w3.org/1999/xlink" xml:space="preserve" xmlns:serif="http://www.serif.com/" style="fill-rule:evenodd;clip-rule:evenodd;stroke-linejoin:round;stroke-miterlimit:2;"><path d="M16,4.174l-11.13,0c-0.384,0 -0.696,0.311 -0.696,0.696c0,0.384 0.312,0.695 0.696,0.695l11.13,0c0.384,0 0.696,-0.311 0.696,-0.695c0,-0.385 -0.312,-0.696 -0.696,-0.696Zm-11.13,9.739l11.13,0c0.384,0 0.696,-0.311 0.696,-0.696c0,-0.385 -0.312,-0.695 -0.696,-0.695l-11.13,0c-0.384,0 -0.696,0.31 -0.696,0.695c0,0.385 0.312,0.696 0.696,0.696Zm11.13,6.957l-11.13,0c-0.384,0 -0.696,0.31 -0.696,0.695c0,0.385 0.312,0.696 0.696,0.696l11.13,0c0.384,0 0.696,-0.311 0.696,-0.696c0,-0.385 -0.312,-0.695 -0.696,-0.695Zm15.474,-18.067l-11.131,-2.782c-0.028,-0.007 -0.055,0 -0.083,-0.004c-0.03,-0.004 -0.056,-0.017 -0.086,-0.017l-19.478,0c-0.384,0 -0.696,0.311 -0.696,0.696l0,30.608c0,0.385 0.312,0.696 0.696,0.696l30.608,0c0.384,0 0.696,-0.311 0.696,-0.696l0,-27.826c0,-0.319 -0.217,-0.597 -0.526,-0.675Zm-11.996,13.893l-18.087,0l0,-6.957l18.087,0l0,6.957Zm-18.087,1.391l18.087,0l0,6.957l-18.087,0l0,-6.957Zm0,-16.696l18.087,0l0,6.957l-18.087,0l0,-6.957Zm0,25.044l18.087,0l0,4.174l-18.087,0l0,-4.174Zm29.218,4.174l-9.739,0l0,-29.023l9.739,2.435l0,26.588Z" style="fill:#074ef5;fill-rule:nonzero;"/></svg>