<?xml version="1.0" encoding="UTF-8" standalone="no"?><!DOCTYPE svg PUBLIC "-//W3C//DTD SVG 1.1//EN" "http://www.w3.org/Graphics/SVG/1.1/DTD/svg11.dtd"><svg width="100%" height="100%" viewBox="0 0 32 21" version="1.1" xmlns="http://www.w3.org/2000/svg" xmlns:xlink="http://www.w3.org/1999/xlink" xml:space="preserve" xmlns:serif="http://www.serif.com/" style="fill-rule:evenodd;clip-rule:evenodd;stroke-linejoin:round;stroke-miterlimit:2;"><path d="M31.983,14.523c-0.08,-1.832 -0.399,-3.863 -0.877,-5.774c-0.478,-1.832 -1.076,-3.545 -1.794,-4.859c-2.79,-4.898 -5.819,-4.142 -9.446,-3.186c-1.156,0.279 -2.391,0.597 -3.667,0.717l-0.398,0c-1.276,-0.12 -2.511,-0.438 -3.667,-0.717c-3.627,-0.916 -6.656,-1.712 -9.446,3.226c-0.718,1.314 -1.356,3.027 -1.794,4.858c-0.478,1.912 -0.797,3.943 -0.877,5.775c-0.08,2.031 0.12,3.504 0.558,4.54c0.439,0.956 1.076,1.553 1.913,1.792c0.758,0.199 1.635,0.12 2.551,-0.279c1.555,-0.637 3.348,-1.991 5.102,-3.624c1.236,-1.195 3.547,-1.792 5.859,-1.792c2.312,0 4.624,0.597 5.859,1.792c1.754,1.633 3.547,2.987 5.102,3.624c0.917,0.359 1.793,0.478 2.551,0.279c0.797,-0.239 1.474,-0.796 1.913,-1.832c0.438,-0.996 0.637,-2.469 0.558,-4.54Zm-1.913,3.983c-0.239,0.557 -0.558,0.876 -0.957,0.995c-0.438,0.12 -0.996,0.04 -1.634,-0.199c-1.395,-0.557 -3.029,-1.792 -4.624,-3.305c-1.514,-1.514 -4.185,-2.27 -6.855,-2.27c-2.67,0 -5.341,0.756 -6.895,2.19c-1.634,1.513 -3.269,2.788 -4.624,3.305c-0.637,0.239 -1.196,0.359 -1.634,0.2c-0.399,-0.12 -0.717,-0.439 -0.957,-0.996c-0.318,-0.757 -0.478,-1.991 -0.398,-3.823c0.08,-1.713 0.359,-3.664 0.837,-5.496c0.438,-1.712 0.996,-3.305 1.674,-4.5c2.192,-3.943 4.743,-3.306 7.772,-2.509c1.236,0.318 2.511,0.637 3.906,0.757l0.598,0c1.435,-0.12 2.71,-0.439 3.946,-0.757c3.029,-0.757 5.58,-1.434 7.772,2.509c0.678,1.195 1.236,2.748 1.674,4.5c0.439,1.832 0.757,3.743 0.837,5.496c0.08,1.832 -0.08,3.066 -0.438,3.903Zm-17.734,-11.749c-0.399,-0.358 -0.877,-0.637 -1.435,-0.677c-0.04,-0.518 -0.279,-1.035 -0.638,-1.394l-0.04,-0.04c-0.438,-0.438 -0.996,-0.677 -1.634,-0.677c-0.638,0 -1.236,0.279 -1.634,0.677c-0.359,0.359 -0.638,0.877 -0.678,1.434c-0.558,0.04 -1.036,0.279 -1.435,0.637l-0.039,0.04c-0.439,0.438 -0.678,0.996 -0.678,1.633c0,0.637 0.279,1.234 0.678,1.633c0.398,0.398 0.876,0.637 1.474,0.677c0.04,0.557 0.279,1.075 0.678,1.433c0.438,0.438 0.996,0.677 1.634,0.677c0.638,0 1.236,-0.278 1.634,-0.677c0.359,-0.398 0.638,-0.876 0.678,-1.433c0.558,-0.04 1.076,-0.279 1.435,-0.677c0.438,-0.438 0.677,-0.996 0.677,-1.633c0,-0.637 -0.279,-1.235 -0.677,-1.633Zm-0.997,2.23c-0.159,0.16 -0.359,0.239 -0.598,0.239l-0.558,0c-0.398,0 -0.757,0.319 -0.757,0.757l0,0.518c0,0.239 -0.08,0.438 -0.239,0.597c-0.16,0.159 -0.359,0.239 -0.598,0.239c-0.239,0 -0.438,-0.08 -0.598,-0.239c-0.159,-0.159 -0.239,-0.358 -0.239,-0.597l0,-0.558c0,-0.398 -0.319,-0.757 -0.757,-0.757l-0.558,0c-0.239,0 -0.439,-0.079 -0.598,-0.239c-0.12,-0.119 -0.239,-0.318 -0.239,-0.557c0,-0.239 0.079,-0.438 0.239,-0.597l0.04,-0.04c0.159,-0.12 0.358,-0.199 0.558,-0.199l0.558,0c0.398,0 0.757,-0.319 0.757,-0.757l0,-0.558c0,-0.239 0.08,-0.438 0.239,-0.597c0.16,-0.159 0.359,-0.239 0.598,-0.239c0.239,0 0.438,0.08 0.598,0.239l0.04,0.04c0.119,0.159 0.199,0.358 0.199,0.557l0,0.558c0,0.398 0.319,0.757 0.757,0.757l0.558,0c0.24,0 0.439,0.079 0.598,0.239c0.16,0.159 0.239,0.358 0.239,0.597c0,0.239 -0.079,0.438 -0.239,0.597Zm11.599,-2.031c0.77,0 1.395,-0.624 1.395,-1.394c0,-0.77 -0.625,-1.394 -1.395,-1.394c-0.77,0 -1.395,0.624 -1.395,1.394c0,0.77 0.625,1.394 1.395,1.394Zm0,5.656c0.77,0 1.395,-0.624 1.395,-1.394c0,-0.77 -0.625,-1.394 -1.395,-1.394c-0.77,0 -1.395,0.624 -1.395,1.394c0,0.77 0.625,1.394 1.395,1.394Zm-2.832,-2.828c0.77,0 1.395,-0.624 1.395,-1.394c0,-0.77 -0.625,-1.394 -1.395,-1.394c-0.77,0 -1.395,0.624 -1.395,1.394c0,0.77 0.625,1.394 1.395,1.394Zm5.66,0c0.771,0 1.395,-0.624 1.395,-1.394c0,-0.77 -0.624,-1.394 -1.395,-1.394c-0.77,0 -1.395,0.624 -1.395,1.394c0,0.77 0.625,1.394 1.395,1.394Z" style="fill:#fff;fill-rule:nonzero;"/></svg>