<?xml version="1.0" encoding="UTF-8" standalone="no"?><!DOCTYPE svg PUBLIC "-//W3C//DTD SVG 1.1//EN" "http://www.w3.org/Graphics/SVG/1.1/DTD/svg11.dtd"><svg width="100%" height="100%" viewBox="0 0 16 32" version="1.1" xmlns="http://www.w3.org/2000/svg" xmlns:xlink="http://www.w3.org/1999/xlink" xml:space="preserve" xmlns:serif="http://www.serif.com/" style="fill-rule:evenodd;clip-rule:evenodd;stroke-linejoin:round;stroke-miterlimit:2;"><path d="M13.68,0l-11.36,0c-0.615,0.002 -1.204,0.247 -1.638,0.682c-0.435,0.434 -0.68,1.023 -0.682,1.638l0,27.36c0.002,0.615 0.247,1.204 0.682,1.638c0.434,0.435 1.023,0.68 1.638,0.682l11.36,0c0.615,-0.002 1.204,-0.247 1.638,-0.682c0.435,-0.434 0.68,-1.023 0.682,-1.638l0,-27.36c-0.002,-0.615 -0.247,-1.204 -0.682,-1.638c-0.434,-0.435 -1.023,-0.68 -1.638,-0.682Zm-4.167,0.836c0.047,0 0.094,0.014 0.133,0.041c0.04,0.026 0.07,0.064 0.088,0.108c0.019,0.043 0.023,0.092 0.014,0.138c-0.009,0.047 -0.032,0.089 -0.066,0.123c-0.033,0.034 -0.076,0.056 -0.122,0.066c-0.047,0.009 -0.095,0.004 -0.139,-0.014c-0.044,-0.018 -0.081,-0.049 -0.108,-0.088c-0.026,-0.04 -0.04,-0.086 -0.04,-0.134c0,-0.063 0.025,-0.124 0.07,-0.169c0.045,-0.045 0.106,-0.071 0.17,-0.071Zm-2.24,0.051l1.454,0c0.048,0 0.095,0.019 0.129,0.054c0.034,0.034 0.053,0.08 0.053,0.128c0,0.048 -0.019,0.095 -0.053,0.129c-0.034,0.034 -0.081,0.053 -0.129,0.053l-1.454,0c-0.048,0 -0.095,-0.019 -0.129,-0.053c-0.034,-0.034 -0.053,-0.081 -0.053,-0.129c0,-0.048 0.019,-0.094 0.053,-0.128c0.034,-0.035 0.081,-0.054 0.129,-0.054Zm8,28.793c0,0.422 -0.168,0.828 -0.467,1.126c-0.298,0.299 -0.704,0.467 -1.126,0.467l-11.36,0c-0.422,0 -0.828,-0.168 -1.126,-0.467c-0.299,-0.299 -0.467,-0.704 -0.467,-1.126l0,-27.36c0,-0.422 0.168,-0.828 0.467,-1.126c0.298,-0.299 0.704,-0.467 1.126,-0.467l1.68,0c0.096,0 0.189,0.039 0.257,0.107c0.068,0.068 0.107,0.16 0.107,0.257l0,0.364c0,0.192 0.076,0.377 0.213,0.514c0.136,0.136 0.321,0.213 0.514,0.213l5.818,0c0.193,0 0.378,-0.077 0.514,-0.213c0.137,-0.137 0.213,-0.322 0.213,-0.514l0,-0.364c0,-0.097 0.039,-0.189 0.107,-0.257c0.068,-0.068 0.161,-0.107 0.257,-0.107l1.68,0c0.209,0 0.416,0.041 0.61,0.122c0.193,0.08 0.368,0.197 0.516,0.345c0.148,0.148 0.265,0.323 0.346,0.516c0.08,0.194 0.121,0.401 0.121,0.61l0,27.36Z" style="fill:#074ef5;fill-rule:nonzero;"/></svg>