<?xml version="1.0" encoding="UTF-8" standalone="no"?><!DOCTYPE svg PUBLIC "-//W3C//DTD SVG 1.1//EN" "http://www.w3.org/Graphics/SVG/1.1/DTD/svg11.dtd"><svg width="100%" height="100%" viewBox="0 0 32 32" version="1.1" xmlns="http://www.w3.org/2000/svg" xmlns:xlink="http://www.w3.org/1999/xlink" xml:space="preserve" xmlns:serif="http://www.serif.com/" style="fill-rule:evenodd;clip-rule:evenodd;stroke-linejoin:round;stroke-miterlimit:2;"><path d="M14.766,21.704c0.244,-0.244 0.244,-0.64 0,-0.884c-0.245,-0.244 -0.641,-0.244 -0.886,0c-0.244,0.244 -0.244,0.64 0,0.884c0.245,0.244 0.641,0.244 0.886,0Zm-2.965,-14.831c0,3.79 3.089,6.873 6.887,6.873c3.797,0 6.886,-3.083 6.886,-6.873c0,-3.79 -3.089,-6.873 -6.886,-6.873c-3.798,0 -6.887,3.083 -6.887,6.873Zm12.521,0c0,3.101 -2.528,5.624 -5.634,5.624c-3.107,0 -5.635,-2.523 -5.635,-5.624c0,-3.101 2.528,-5.623 5.635,-5.623c3.106,0 5.634,2.522 5.634,5.623Zm-17.08,24.942c0.243,0.244 0.638,0.247 0.884,0.005l3.035,-2.984c0.516,-0.515 0.673,-1.277 0.446,-1.939l0.653,-0.628c0.351,-0.339 0.814,-0.526 1.303,-0.526l8.323,0c1.476,0 2.872,-0.566 3.93,-1.594c0.044,-0.042 -0.33,0.398 5.678,-6.769c0.891,-1.052 0.758,-2.632 -0.298,-3.523c-1.048,-0.882 -2.619,-0.755 -3.513,0.279l-3.694,3.789c-0.467,-0.573 -1.178,-0.93 -1.946,-0.93l-6.982,0c-0.993,-0.414 -2.047,-0.624 -3.135,-0.624c-3.014,0 -5.647,1.389 -7.059,3.995c-0.595,-0.113 -1.223,0.067 -1.675,0.517l-2.978,2.982c-0.243,0.243 -0.244,0.637 -0.001,0.881l7.029,7.069Zm4.684,-14.195c0.959,0 1.886,0.193 2.756,0.573c0.079,0.034 0.165,0.052 0.251,0.052l7.11,0c0.678,0 1.252,0.553 1.252,1.25c0,0.689 -0.562,1.249 -1.252,1.249l-5.108,0c-0.346,0 -0.626,0.28 -0.626,0.625c0,0.345 0.28,0.625 0.626,0.625l5.108,0c1.38,0 2.504,-1.121 2.504,-2.499c0,-0.11 -0.008,-0.219 -0.022,-0.327c3.573,-3.666 4.077,-4.181 4.099,-4.207c0.446,-0.526 1.238,-0.592 1.765,-0.149c0.527,0.445 0.594,1.235 0.147,1.764l-5.616,6.699c-0.82,0.786 -1.896,1.218 -3.034,1.218l-8.323,0c-0.815,0 -1.587,0.312 -2.173,0.876l-0.532,0.513l-4.904,-4.895c1.146,-2.146 3.297,-3.367 5.972,-3.367Zm-7.848,4.147c0.207,-0.206 0.524,-0.244 0.775,-0.088c0.109,0.066 -0.202,-0.217 5.423,5.389c0.25,0.25 0.237,0.648 0.003,0.881l-2.587,2.544l-6.152,-6.186l2.538,-2.54Zm13.858,-18.643l0,0.732c-0.728,0.258 -1.252,0.953 -1.252,1.768c0,1.033 0.843,1.874 1.878,1.874c0.346,0 0.626,0.28 0.626,0.625c0,0.344 -0.28,0.625 -0.626,0.625c-0.267,0 -0.556,-0.168 -0.812,-0.473c-0.223,-0.264 -0.618,-0.298 -0.883,-0.076c-0.264,0.222 -0.298,0.616 -0.076,0.88c0.335,0.397 0.728,0.674 1.145,0.814l0,0.729c0,0.345 0.281,0.625 0.626,0.625c0.346,0 0.626,-0.28 0.626,-0.625l0,-0.732c0.729,-0.258 1.253,-0.953 1.253,-1.767c0,-1.034 -0.843,-1.875 -1.879,-1.875c-0.345,0 -0.626,-0.28 -0.626,-0.624c0,-0.345 0.281,-0.625 0.626,-0.625c0.222,0 0.456,0.113 0.677,0.326c0.249,0.24 0.645,0.234 0.886,-0.014c0.24,-0.248 0.234,-0.644 -0.015,-0.884c-0.317,-0.307 -0.635,-0.48 -0.922,-0.575l0,-0.728c0,-0.345 -0.28,-0.625 -0.626,-0.625c-0.345,0 -0.626,0.28 -0.626,0.625Z" style="fill:#074ef5;fill-rule:nonzero;"/></svg>