<svg width="24" height="24" viewBox="0 0 24 24" fill="none" xmlns="http://www.w3.org/2000/svg">
<circle cx="12" cy="12" r="12" fill="#3D7E41"/>
<path d="M16.5238 10.0816H16.0476V9.18795C16.0476 6.87472 14.1214 5 12 5C9.87857 5 7.95238 6.87472 7.95238 9.18795V10.0816H7.47619C7.21429 10.0816 7 10.3152 7 10.6008V15.7422C7 16.9049 8.15417 18 9.22155 18H14.9826C16.05 18 17 16.9049 17 15.7422V10.6008C17 10.3152 16.7857 10.0816 16.5238 10.0816ZM9.7381 9.18795C9.7381 7.81935 10.7449 6.7096 12 6.7096C13.2551 6.7096 14.2619 7.81935 14.2619 9.18795V10.0816H9.7381V9.18795Z" fill="white"/>
</svg>
