<svg width="24" height="24" viewBox="0 0 24 24" fill="none" xmlns="http://www.w3.org/2000/svg">
<circle cx="12" cy="12" r="12" fill="#F55C2A"/>
<path d="M20 11.9994C19.9683 11.9998 19.9365 12 19.9047 12C15.539 12 12 8.46095 12 4.09532C12 4.0635 12.0002 4.03173 12.0006 4H12V4.09532V12H19.9047H20V11.9994Z" fill="white"/>
<path d="M4 12.0006C4.03173 12.0002 4.0635 12 4.09532 12C8.46095 12 12 15.539 12 19.9047C12 19.9365 11.9998 19.9683 11.9994 20H12V19.9047V12L4.09532 12H4L4 12.0006Z" fill="white"/>
<path d="M4 11.9994C4.03173 11.9998 4.0635 12 4.09532 12C8.46095 12 12 8.46095 12 4.09532C12 4.0635 11.9998 4.03173 11.9994 4H12V4.09532V12L4.09532 12H4L4 11.9994Z" fill="white"/>
<path d="M20 12.0006C19.9683 12.0002 19.9365 12 19.9047 12C15.539 12 12 15.539 12 19.9047C12 19.9365 12.0002 19.9683 12.0006 20H12V19.9047V12H19.9047H20V12.0006Z" fill="white"/>
</svg>
