<svg width="16" height="20" viewBox="0 0 16 20" fill="none" xmlns="http://www.w3.org/2000/svg">
<path d="M10.8686 3.50346H1.57942C0.707789 3.50346 -0.000152588 4.2114 -0.000152588 5.08302V18.4111C-0.000152588 19.2827 0.707789 19.9907 1.57942 19.9907H10.8686C11.7402 19.9907 12.4482 19.2827 12.4482 18.4111V5.08302C12.4441 4.2114 11.7361 3.50346 10.8686 3.50346ZM11.3392 18.407C11.3392 18.6689 11.1264 18.8817 10.8645 18.8817H1.57532C1.31343 18.8817 1.10064 18.6689 1.10064 18.407V5.08302C1.10064 4.82113 1.31343 4.60833 1.57532 4.60833H10.8645C11.1264 4.60833 11.3392 4.82113 11.3392 5.08302V18.407Z" fill="#626E88"/>
<path d="M14.4205 0.00878906H5.1313C4.25968 0.00878906 3.55173 0.71673 3.55173 1.58836C3.55173 1.89527 3.79726 2.1408 4.10417 2.1408C4.41109 2.1408 4.65661 1.89527 4.65661 1.58836C4.65661 1.32646 4.86941 1.11367 5.1313 1.11367H14.4205C14.6824 1.11367 14.8952 1.32646 14.8952 1.58836V14.9165C14.8952 15.1784 14.6824 15.3912 14.4205 15.3912C14.1136 15.3912 13.868 15.6367 13.868 15.9436C13.868 16.2505 14.1136 16.496 14.4205 16.496C15.2921 16.496 16 15.7881 16 14.9165V1.58836C16 0.71673 15.2921 0.00878906 14.4205 0.00878906Z" fill="#626E88"/>
</svg>
