<?xml version="1.0" encoding="UTF-8" standalone="no"?><!DOCTYPE svg PUBLIC "-//W3C//DTD SVG 1.1//EN" "http://www.w3.org/Graphics/SVG/1.1/DTD/svg11.dtd"><svg width="100%" height="100%" viewBox="0 0 40 40" version="1.1" xmlns="http://www.w3.org/2000/svg" xmlns:xlink="http://www.w3.org/1999/xlink" xml:space="preserve" xmlns:serif="http://www.serif.com/" style="fill-rule:evenodd;clip-rule:evenodd;stroke-linejoin:round;stroke-miterlimit:2;"><path d="M40,19.999c-0.079,0.001 -0.159,0.001 -0.238,0.001c-10.914,0 -19.762,-8.848 -19.762,-19.762c0,-0.079 0,-0.159 0.001,-0.238l-0.001,0l0,20l20,0l0,-0.001Zm-40,0.002c0.079,-0.001 0.159,-0.001 0.238,-0.001c10.914,0 19.762,8.848 19.762,19.762c0,0.079 0,0.159 -0.001,0.238l0.001,0l0,-0.238l0,-19.762l-19.762,0l-0.238,0l0,0.001Zm0,-0.002c0.079,0.001 0.159,0.001 0.238,0.001c10.914,0 19.762,-8.848 19.762,-19.762c0,-0.079 0,-0.159 -0.001,-0.238l0.001,0l0,20l-19.762,0l-0.238,0l0,-0.001Zm40,0.002c-0.079,-0.001 -0.159,-0.001 -0.238,-0.001c-10.914,0 -19.762,8.848 -19.762,19.762c0,0.079 0,0.159 0.001,0.238l-0.001,0l0,-0.238l0,-19.762l20,0l0,0.001Z" style="fill:#fff;fill-rule:nonzero;"/></svg>