<svg width="150" height="22" viewBox="0 0 150 22" fill="none" xmlns="http://www.w3.org/2000/svg">
<path d="M1.54688 21.6249H6.56052V9.44701H1.54688V21.6249Z" fill="white"/>
<path d="M19.1735 9.0486C16.4355 9.0486 14.3534 10.3703 13.3333 12.3968H13.3104L12.7795 9.44701H8.44861V21.6249H13.4622V15.9134C13.4622 13.5996 14.7553 12.2319 16.8793 12.2319C18.7489 12.2319 19.8335 13.3888 19.8335 15.3235V21.6249H24.8243L24.8432 14.7336C24.8661 11.2168 22.655 9.0486 19.1735 9.0486Z" fill="white"/>
<path d="M40.0819 16.4571C38.8949 17.6597 37.7914 18.2497 36.3047 18.2497C34.7726 18.2497 34.0937 17.4952 34.0937 16.0317V12.8446H40.7835V9.4467H34.0937V5.20231L29.08 6.19049V9.4467H26.0236V12.8446H29.08L29.1029 17.2806C29.1029 20.2074 31.2911 22 34.8598 22C37.5562 22 39.4448 21.2952 41.1437 19.5943L40.0819 16.4571Z" fill="white"/>
<path d="M47.5275 14.4267C47.7171 13.0592 49.0976 12.0899 50.9027 12.0899C52.6663 12.0899 54.1111 13.0363 54.1758 14.4267H47.5275ZM59.2309 15.5376C59.2309 11.6189 55.9392 9.04829 50.9484 9.04829C45.8705 9.04829 42.3244 11.7147 42.3244 15.5149C42.3244 19.4756 46.147 22 51.798 22C54.7256 22 57.5321 21.2684 59.0187 20.2074L57.6382 17.5641C56.5118 18.2728 54.3235 18.7937 52.1581 18.7937C50.0989 18.7937 48.1875 18.227 47.611 16.8095H59.0792C59.1855 16.4074 59.2309 15.8902 59.2309 15.5376Z" fill="white"/>
<path d="M60.8423 21.6249H65.875V4.02277H60.8423V21.6249Z" fill="white"/>
<path d="M76.2696 18.2957C73.9789 18.2957 72.4924 17.2116 72.4924 15.5376C72.4924 13.8597 73.9789 12.7529 76.2696 12.7529C78.5638 12.7529 80.0506 13.8597 80.0506 15.5376C80.0506 17.2116 78.5638 18.2957 76.2696 18.2957ZM79.8801 4.02246V12.5612H79.8612C79.0114 10.439 76.6753 9.04829 73.9333 9.04829C70.0273 9.04829 67.4786 11.6189 67.4786 15.5376C67.4786 19.4527 70.0273 22 73.9333 22C76.6753 22 79.0342 20.6325 79.9027 18.4873H79.9256L80.5816 21.6245H84.9162V4.02246H79.8801Z" fill="white"/>
<path d="M126.348 9.0486C123.928 9.0486 121.698 10.3703 120.678 12.5883H120.656C120.041 10.4163 118.365 9.0486 115.816 9.0486C113.309 9.0486 111.25 10.3934 110.249 12.5385H110.23L109.57 9.44701H105.387V21.6249H110.42V16.032C110.42 13.8831 111.546 12.5883 113.458 12.5883C115.009 12.5883 115.941 13.5996 115.941 15.3004V21.6249H120.955V16.032C120.955 13.8831 122.078 12.5883 123.993 12.5883C125.563 12.5883 126.477 13.5996 126.477 15.3004V21.6249H131.509V14.473C131.509 11.2168 129.598 9.0486 126.348 9.0486Z" fill="white"/>
<path d="M138.295 14.4267C138.485 13.0592 139.869 12.0899 141.674 12.0899C143.434 12.0899 144.879 13.0363 144.943 14.4267H138.295ZM149.999 15.5376C149.999 11.6189 146.707 9.04829 141.716 9.04829C136.638 9.04829 133.092 11.7147 133.092 15.5149C133.092 19.4756 136.915 22 142.565 22C145.497 22 148.299 21.2684 149.786 20.2074L148.406 17.5641C147.279 18.2728 145.091 18.7937 142.926 18.7937C140.866 18.7937 138.955 18.227 138.382 16.8095H149.851C149.953 16.4074 149.999 15.8902 149.999 15.5376Z" fill="white"/>
<path d="M95.1533 9.04814C89.8439 9.04814 86.3587 11.6187 86.3587 15.5373C86.3587 15.6064 86.3587 15.6792 86.3663 15.7482H91.3798C91.3759 15.6792 91.3721 15.6102 91.3721 15.5373C91.3721 13.5991 92.8588 12.3273 95.1533 12.3273C97.4477 12.3273 98.9343 13.5991 98.9343 15.5373C98.9343 15.6102 98.9305 15.6792 98.9266 15.7482H103.959C103.967 15.6792 103.967 15.6064 103.967 15.5373C103.967 11.6187 100.482 9.04814 95.1533 9.04814Z" fill="white"/>
<path d="M8.11004 4.09598C5.33556 4.81027 4.76217 5.38946 4.05502 8.19197C3.34788 5.38946 2.77448 4.81027 0 4.09598C2.77448 3.38153 3.34788 2.80251 4.05502 0C4.76217 2.80251 5.33556 3.38153 8.11004 4.09598Z" fill="white"/>
</svg>
