<svg width="145" height="22" viewBox="0 0 145 22" fill="none" xmlns="http://www.w3.org/2000/svg">
<path d="M1.49609 20.6855H6.34065V9.03608H1.49609V20.6855Z" fill="black"/>
<path d="M18.5273 8.65496C15.8816 8.65496 13.8698 9.91929 12.884 11.8579H12.8619L12.3489 9.03608H8.16406V20.6855H13.0086V15.2219C13.0086 13.0085 14.2581 11.7001 16.3104 11.7001C18.117 11.7001 19.165 12.8069 19.165 14.6576V20.6855H23.9875L24.0058 14.0933C24.0278 10.7291 21.8913 8.65496 18.5273 8.65496Z" fill="black"/>
<path d="M38.7327 15.7424C37.5856 16.8929 36.5193 17.4573 35.0828 17.4573C33.6023 17.4573 32.9463 16.7356 32.9463 15.3356V12.2867H39.4106V9.03625H32.9463V4.97603L28.1018 5.92133V9.03625H25.1484V12.2867H28.1018L28.1239 16.5303C28.1239 19.33 30.2383 21.0449 33.6867 21.0449C36.2921 21.0449 38.117 20.3707 39.7586 18.7436L38.7327 15.7424Z" fill="black"/>
<path d="M45.926 13.8002C46.1092 12.492 47.4432 11.5648 49.1874 11.5648C50.8916 11.5648 52.2876 12.4701 52.3501 13.8002H45.926ZM57.2347 14.8629C57.2347 11.1142 54.054 8.65513 49.2315 8.65513C44.3249 8.65513 40.8984 11.2059 40.8984 14.8411C40.8984 18.63 44.5921 21.0449 50.0525 21.0449C52.8813 21.0449 55.5932 20.3451 57.0297 19.33L55.6958 16.8015C54.6073 17.4794 52.4929 17.9777 50.4005 17.9777C48.4107 17.9777 46.5638 17.4356 46.0067 16.0796H57.0881C57.1909 15.6949 57.2347 15.2002 57.2347 14.8629Z" fill="black"/>
<path d="M58.793 20.6855H63.6559V3.8472H58.793V20.6855Z" fill="black"/>
<path d="M73.6977 17.5013C71.4842 17.5013 70.0478 16.4642 70.0478 14.8629C70.0478 13.2578 71.4842 12.199 73.6977 12.199C75.9145 12.199 77.3512 13.2578 77.3512 14.8629C77.3512 16.4642 75.9145 17.5013 73.6977 17.5013ZM77.1863 3.84737V12.0157H77.1681C76.347 9.98554 74.0897 8.65513 71.4402 8.65513C67.6659 8.65513 65.2031 11.1142 65.2031 14.8629C65.2031 18.6081 67.6659 21.0449 71.4402 21.0449C74.0897 21.0449 76.3691 19.7367 77.2083 17.6845H77.2303L77.8643 20.6857H82.0527V3.84737H77.1863Z" fill="black"/>
<path d="M91.9434 8.65508C86.813 8.65508 83.4453 11.1141 83.4453 14.8627C83.4453 14.9288 83.4453 14.9984 83.4527 15.0645H88.2971C88.2934 14.9984 88.2897 14.9325 88.2897 14.8627C88.2897 13.0086 89.7262 11.7919 91.9434 11.7919C94.1604 11.7919 95.5969 13.0086 95.5969 14.8627C95.5969 14.9325 95.5932 14.9984 95.5894 15.0645H100.452C100.46 14.9984 100.46 14.9288 100.46 14.8627C100.46 11.1141 97.0919 8.65508 91.9434 8.65508Z" fill="#004BFD"/>
<path d="M122.09 8.65496C119.752 8.65496 117.597 9.91929 116.612 12.0411H116.589C115.996 9.96329 114.376 8.65496 111.913 8.65496C109.491 8.65496 107.501 9.94137 106.534 11.9934H106.516L105.878 9.03608H101.836V20.6855H106.699V15.3354C106.699 13.2797 107.787 12.0411 109.634 12.0411C111.133 12.0411 112.034 13.0085 112.034 14.6355V20.6855H116.879V15.3354C116.879 13.2797 117.964 12.0411 119.814 12.0411C121.331 12.0411 122.214 13.0085 122.214 14.6355V20.6855H127.077V13.844C127.077 10.7291 125.23 8.65496 122.09 8.65496Z" fill="black"/>
<path d="M133.633 13.8002C133.816 12.492 135.154 11.5648 136.898 11.5648C138.599 11.5648 139.995 12.4701 140.057 13.8002H133.633ZM144.942 14.8629C144.942 11.1142 141.761 8.65513 136.939 8.65513C132.032 8.65513 128.605 11.2059 128.605 14.8411C128.605 18.63 132.299 21.0449 137.76 21.0449C140.592 21.0449 143.3 20.3451 144.737 19.33L143.403 16.8015C142.314 17.4794 140.2 17.9777 138.108 17.9777C136.118 17.9777 134.271 17.4356 133.717 16.0796H144.799C144.898 15.6949 144.942 15.2002 144.942 14.8629Z" fill="black"/>
<path d="M7.83653 3.91767C5.15562 4.60097 4.60156 5.15503 3.91826 7.83594C3.23497 5.15503 2.68091 4.60097 0 3.91767C2.68091 3.23422 3.23497 2.68032 3.91826 -0.000588268C4.60156 2.68032 5.15562 3.23422 7.83653 3.91767Z" fill="#004BFD"/>
</svg>
