<svg width="24" height="30" viewBox="0 0 24 30" fill="none" xmlns="http://www.w3.org/2000/svg">
<path d="M13.6929 13.8933C13.4674 13.6944 13.2097 13.5617 12.9197 13.4623C12.6298 13.396 12.3076 13.3628 11.9211 13.3628H10.4392C10.1815 13.3628 10.0204 13.4291 9.89154 13.5286C9.7949 13.6281 9.73047 13.827 9.73047 14.0923V18.3697C9.73047 18.5687 9.73047 18.7013 9.7949 18.8339C9.82711 18.9665 9.89154 19.0329 9.98819 19.0992C10.0848 19.1655 10.2459 19.1987 10.4714 19.1987H11.9533C12.211 19.1987 12.4365 19.1655 12.662 19.1323C12.8553 19.0992 13.0486 19.0329 13.2419 18.9666C13.4352 18.8671 13.5962 18.7676 13.7251 18.635C13.9184 18.436 14.0795 18.2371 14.2083 18.005C14.3372 17.7729 14.4338 17.5076 14.4983 17.2092C14.5627 16.9107 14.5949 16.6123 14.5949 16.2476C14.5949 15.2197 14.305 14.4239 13.6929 13.8933ZM12.8553 18.005C12.7587 18.0713 12.662 18.1376 12.5654 18.1708C12.4365 18.2039 12.3399 18.2371 12.2432 18.2371C12.1466 18.2371 11.9855 18.2371 11.7922 18.2371H10.9224V14.2581H11.6956C12.0499 14.2581 12.3399 14.2912 12.5976 14.3907C12.8553 14.457 13.0486 14.656 13.2097 14.9544C13.3707 15.2528 13.4674 15.6839 13.4674 16.2476C13.4352 17.1097 13.2419 17.6734 12.8553 18.005Z" fill="#074EF5"/>
<path d="M23.9356 6.53219L23.9034 6.49903V6.46587L17.7826 0.165792L17.7503 0.132633C17.7503 0.132633 17.7181 0.132633 17.7181 0.099475C17.7181 0.099475 17.6859 0.099475 17.6859 0.0663167C17.5893 0 17.4926 0 17.3638 0H2.1906C1.61074 0 1.06309 0.232108 0.67651 0.630008L0.644295 0.663167C0.257718 1.06107 0 1.65792 0 2.25477V27.7452C0 28.3752 0.257718 28.9389 0.644295 29.3368C1.03087 29.7347 1.61074 30 2.1906 30H21.8094C22.4215 30 22.9691 29.7347 23.3557 29.3368C23.7423 28.9389 24 28.3421 24 27.7452V6.86377C24 6.73114 23.9678 6.63167 23.9356 6.53219ZM17.9758 2.3874L21.6161 6.13429H18.9423C18.6846 6.13429 18.4268 6.03482 18.2658 5.83587C18.1047 5.67007 17.9758 5.40481 17.9758 5.13954V2.3874ZM22.6148 27.7452C22.6148 27.9773 22.5181 28.1763 22.357 28.3421C22.196 28.5079 22.0027 28.6074 21.7772 28.6074H2.1906C1.9651 28.6074 1.77181 28.5079 1.61074 28.3752C1.44966 28.2095 1.38523 28.0105 1.38523 27.7784V2.22161C1.38523 1.9895 1.48188 1.79055 1.64295 1.62476L1.67517 1.5916C1.83624 1.45897 2.02953 1.35949 2.22282 1.35949H16.655V5.10638C16.655 5.76955 16.9128 6.3664 17.3638 6.83062C17.7826 7.26167 18.3946 7.52694 19.0389 7.52694H22.6148V27.7452Z" fill="#074EF5"/>
<path d="M8.24665 13.8271C8.08558 13.6613 7.89229 13.5618 7.63457 13.4955C7.40907 13.4292 7.05471 13.396 6.63592 13.396H5.15404C4.89632 13.396 4.70303 13.4623 4.60639 13.5618C4.47753 13.6613 4.44531 13.8602 4.44531 14.1255V18.635C4.44531 18.8671 4.50974 19.0329 4.60639 19.1655C4.70303 19.2982 4.8641 19.3313 5.02518 19.3313C5.18625 19.3313 5.31511 19.265 5.44397 19.1324C5.54061 18.9998 5.60504 18.834 5.60504 18.6019V16.9439H6.66813C7.37686 16.9439 7.89229 16.7781 8.24665 16.4797C8.60102 16.1813 8.79431 15.7171 8.79431 15.1202C8.79431 14.855 8.76209 14.5897 8.66545 14.3576C8.53659 14.1586 8.40773 13.9597 8.24665 13.8271ZM7.4735 15.6839C7.37686 15.8166 7.248 15.916 7.05471 15.9823C6.86142 16.0487 6.63592 16.0818 6.3782 16.0818H5.60504V14.2913H6.3782C6.89363 14.2913 7.21578 14.3907 7.40907 14.5565C7.57014 14.7223 7.63457 14.9213 7.63457 15.1865C7.60236 15.3855 7.57014 15.5513 7.4735 15.6839Z" fill="#074EF5"/>
<path d="M16.2986 13.3291C16.1053 13.3623 15.9764 13.3954 15.8798 13.4617C15.7831 13.4949 15.6865 13.5944 15.6543 13.6938C15.5898 13.7933 15.5898 13.926 15.5898 14.1249V18.6013C15.5898 18.8334 15.6543 19.0323 15.7509 19.1318C15.8476 19.2644 16.0086 19.2976 16.1697 19.2976C16.3308 19.2976 16.4596 19.2313 16.5885 19.1318C16.6851 18.9992 16.7496 18.8334 16.7496 18.6013V16.6781H18.6502C18.8113 16.6781 18.9402 16.6449 19.0368 16.5455C19.1335 16.4791 19.1657 16.3465 19.1657 16.2139C19.1657 16.0812 19.1335 15.9818 19.0368 15.8823C18.9402 15.816 18.8113 15.7497 18.6502 15.7497H16.7496V14.2575H19.0046C19.1979 14.2575 19.3268 14.2244 19.4234 14.1249C19.52 14.0254 19.5523 13.926 19.5523 13.7933C19.5523 13.6607 19.52 13.5612 19.4234 13.4617C19.3268 13.3623 19.1979 13.3291 19.0046 13.3291H16.2986Z" fill="#074EF5"/>
</svg>
