<svg width="16" height="16" viewBox="0 0 16 16" fill="white" xmlns="http://www.w3.org/2000/svg">
<path d="M4.81315 7.28329C5.66649 8.96032 7.0413 10.3292 8.71834 11.1885L10.022 9.88477C10.182 9.72477 10.4191 9.67144 10.6265 9.74255C11.2902 9.96181 12.0072 10.0803 12.742 10.0803C13.068 10.0803 13.3346 10.347 13.3346 10.6729V12.7411C13.3346 13.067 13.068 13.3337 12.742 13.3337C7.1776 13.3337 2.66797 8.82403 2.66797 3.25958C2.66797 2.93366 2.93464 2.66699 3.26056 2.66699H5.33464C5.66056 2.66699 5.92723 2.93366 5.92723 3.25958C5.92723 4.00033 6.04575 4.71144 6.26501 5.37514C6.33019 5.58255 6.28278 5.81366 6.11686 5.97958L4.81315 7.28329Z"/>
</svg>
