<svg width="12" height="12" viewBox="0 0 12 12" fill="none" xmlns="http://www.w3.org/2000/svg">
<path d="M2.81187 5.28329C3.66521 6.96032 5.04002 8.32921 6.71706 9.18847L8.02076 7.88477C8.18076 7.72477 8.4178 7.67144 8.62521 7.74255C9.28891 7.96181 10.0059 8.08033 10.7408 8.08033C11.0667 8.08033 11.3334 8.34699 11.3334 8.67292V10.7411C11.3334 11.067 11.0667 11.3337 10.7408 11.3337C5.17632 11.3337 0.666687 6.82403 0.666687 1.25958C0.666687 0.933659 0.933354 0.666992 1.25928 0.666992H3.33335C3.65928 0.666992 3.92595 0.933659 3.92595 1.25958C3.92595 2.00033 4.04446 2.71144 4.26372 3.37514C4.32891 3.58255 4.2815 3.81366 4.11558 3.97958L2.81187 5.28329Z" fill="#074EF5"/>
</svg>
