<svg width="85" height="85" viewBox="0 0 85 85" fill="#074EF5" xmlns="http://www.w3.org/2000/svg">
<path d="M85 42.497C84.8315 42.499 84.6627 42.5 84.4936 42.5C61.3012 42.5 42.5 23.6988 42.5 0.506368C42.5 0.337344 42.501 0.168552 42.503 0H42.5V0.506368V42.5H84.4936H85V42.497Z"/>
<path d="M3.71521e-06 42.503C0.168556 42.501 0.337347 42.5 0.506372 42.5C23.6988 42.5 42.5 61.3012 42.5 84.4936C42.5 84.6627 42.499 84.8315 42.497 85H42.5V84.4936V42.5L0.506372 42.5H3.71547e-06L3.71521e-06 42.503Z" />
<path d="M0 42.497C0.168552 42.499 0.337347 42.5 0.506372 42.5C23.6988 42.5 42.5 23.6988 42.5 0.506368C42.5 0.337344 42.499 0.168552 42.497 0H42.5V0.506368V42.5L0.506372 42.5H3.71547e-06L0 42.497Z" />
<path d="M85 42.503C84.8315 42.501 84.6627 42.5 84.4936 42.5C61.3012 42.5 42.5 61.3012 42.5 84.4936C42.5 84.6627 42.501 84.8315 42.503 85H42.5V84.4936V42.5H84.4936H85V42.503Z" />
</svg>
