<svg width="168" height="171" viewBox="0 0 168 171" fill="none" xmlns="http://www.w3.org/2000/svg">
<path d="M342 -0.0120239C341.322 -0.00401393 340.643 0 339.963 0C246.647 0 171 -75.6471 171 -168.963C171 -169.643 171.004 -170.322 171.012 -171H171V-168.963V0H339.963H342V-0.0120239Z" fill="#EAF0FF"/>
<path d="M1.49482e-05 0.0120087C0.678189 0.00399873 1.35732 -1.53182e-05 2.0374 -1.52588e-05C95.3529 -7.10089e-06 171 75.6471 171 168.963C171 169.643 170.996 170.322 170.988 171H171V168.963V0L2.0374 -1.52588e-05H1.49493e-05L1.49482e-05 0.0120087Z" fill="#EAF0FF"/>
<path d="M0 -0.0120239C0.678174 -0.00401393 1.35732 -1.52588e-05 2.0374 -1.52588e-05C95.3529 -1.52588e-05 171 -75.6471 171 -168.963C171 -169.643 170.996 -170.322 170.988 -171H171V-168.963V0L2.0374 -1.52588e-05H1.49493e-05L0 -0.0120239Z" fill="#EAF0FF"/>
<path d="M342 0.0120392C341.322 0.00402913 340.643 5.94543e-08 339.963 0C246.647 -8.1579e-06 171 75.6471 171 168.963C171 169.643 171.004 170.322 171.012 171H171V168.963V0H339.963H342V0.0120392Z" fill="#EAF0FF"/>
</svg>
