<svg width="144" height="138" viewBox="0 0 144 138" fill="none" xmlns="http://www.w3.org/2000/svg">
<path d="M134 -45.4454L160.666 -105L160.13 -40.7176L209.898 -86.4916L182.294 -27.2862L247.605 -52.3222L197.114 -7.1929L268 -7.67644L202.313 16.5L268 40.6764L197.114 40.1929L247.605 85.3222L182.294 60.3131L223.432 112.131L160.13 73.7175L160.666 138L134 78.4454L107.334 138L107.87 73.7175L52.0456 113.179L85.7064 60.3131L20.3948 85.3222L70.886 40.1929L0 40.6764L65.6868 16.5L0 -7.67644L70.886 -7.1929L20.3948 -52.3222L85.7064 -27.2862L58.1024 -86.4916L107.87 -40.7176L107.334 -105L134 -45.4454Z" fill="#EAF0FF"/>
</svg>
