<?xml version="1.0" encoding="UTF-8" standalone="no"?><!DOCTYPE svg PUBLIC "-//W3C//DTD SVG 1.1//EN" "http://www.w3.org/Graphics/SVG/1.1/DTD/svg11.dtd"><svg width="100%" height="100%" viewBox="0 0 57 52" version="1.1" xmlns="http://www.w3.org/2000/svg" xmlns:xlink="http://www.w3.org/1999/xlink" xml:space="preserve" xmlns:serif="http://www.serif.com/" style="fill-rule:evenodd;clip-rule:evenodd;"><path d="M28.005,12.378l0.075,0.169l0.075,-0.169l5.521,-12.378l-0.111,13.355l-0.002,0.191l0.14,-0.129l10.297,-9.509l-5.705,12.287l-0.086,0.185l0.19,-0.074l13.497,-5.194l-10.424,9.354l-0.162,0.146l0.218,-0.002l14.632,-0.1l-13.554,5.009l-0.209,0.077l0.209,0.077l13.554,5.009l-14.632,-0.1l-0.218,-0.002l0.162,0.146l10.424,9.354l-13.497,-5.189l-0.281,-0.108l0.187,0.237l8.479,10.723l-13.094,-7.978l-0.127,-0.077l0.002,0.148l0.111,13.356l-5.521,-12.378l-0.075,-0.169l-0.075,0.169l-5.521,12.378l0.111,-13.356l0.002,-0.161l-0.132,0.093l-11.552,8.199l6.947,-10.954l0.134,-0.211l-0.233,0.089l-13.497,5.189l10.424,-9.354l0.162,-0.146l-0.218,0.002l-14.632,0.1l13.554,-5.009l0.209,-0.077l-0.209,-0.077l-13.554,-5.009l14.632,0.1l0.218,0.002l-0.162,-0.146l-10.424,-9.354l13.497,5.194l0.19,0.074l-0.086,-0.185l-5.705,-12.287l10.297,9.509l0.14,0.129l-0.002,-0.191l-0.111,-13.355l5.521,12.378Z" style="fill:none;fill-rule:nonzero;stroke:#ff865f;stroke-width:0.17px;"/></svg>