<svg width="74" height="67" viewBox="0 0 74 67" fill="none" xmlns="http://www.w3.org/2000/svg">
<path d="M37 16.4204L44.363 0L44.215 17.724L57.9568 5.10314L50.3348 21.4273L68.3686 14.5243L54.427 26.9674L74 26.8341L55.8626 33.5L74 40.1659L54.427 40.0326L68.3686 52.4757L50.3348 45.5801L61.6938 59.8675L44.215 49.276L44.363 67L37 50.5796L29.637 67L29.785 49.276L14.3708 60.1563L23.6652 45.5801L5.6314 52.4757L19.573 40.0326L0 40.1659L18.1374 33.5L0 26.8341L19.573 26.9674L5.6314 14.5243L23.6652 21.4273L16.0432 5.10314L29.785 17.724L29.637 0L37 16.4204Z" fill="#F55C2A"/>
</svg>
