<svg width="16" height="16" viewBox="0 0 16 16" fill="#6290FC" xmlns="http://www.w3.org/2000/svg">
<path d="M7.99793 0C6.41577 0.000409145 4.86926 0.469949 3.55394 1.34925C2.23861 2.22855 1.21356 3.47812 0.608374 4.93997C0.00318977 6.40181 -0.154942 8.01028 0.153974 9.56199C0.462889 11.1137 1.22498 12.539 2.34388 13.6576C3.46278 14.7762 4.88825 15.5379 6.44004 15.8464C7.99183 16.1549 9.60026 15.9964 11.0619 15.3908C12.5236 14.7853 13.7729 13.7599 14.6519 12.4443C15.5309 11.1288 16 9.58216 16 8C15.9973 5.87875 15.1532 3.8452 13.6531 2.34544C12.153 0.845681 10.1192 0.00218961 7.99793 0ZM7.99793 14.738C6.66536 14.7376 5.36284 14.3421 4.25504 13.6015C3.14725 12.8608 2.28394 11.8084 1.77427 10.5771C1.2646 9.34585 1.13146 7.99112 1.39169 6.68421C1.65191 5.37729 2.29381 4.17688 3.23622 3.23475C4.17863 2.29263 5.37924 1.6511 6.68624 1.39128C7.99323 1.13146 9.34792 1.26501 10.579 1.77506C11.8101 2.28511 12.8623 3.14874 13.6026 4.25676C14.3429 5.36478 14.738 6.66743 14.738 8C14.7359 9.78672 14.025 11.4996 12.7614 12.7628C11.4978 14.026 9.78466 14.7364 7.99793 14.738Z"/>
<path d="M8 8.57143V1.14286L11.4286 1.71429L8 8.57143Z" />
</svg>
